<svg xmlns="http://www.w3.org/2000/svg" version="1.1" xmlns:xlink="http://www.w3.org/1999/xlink" xmlns:svgjs="http://svgjs.dev/svgjs" width="128" height="128" viewBox="0 0 128 128"><g transform="matrix(0.8046875,0,0,0.8046875,12.221578124999994,15.255027266671874)"><svg viewBox="0 0 96 90" data-background-color="#0e0c15" preserveAspectRatio="xMidYMid meet" height="120" width="128" xmlns="http://www.w3.org/2000/svg" xmlns:xlink="http://www.w3.org/1999/xlink"><g id="tight-bounds" transform="matrix(1,0,0,1,0.25950000000000273,0.4322075961116525)"><svg viewBox="0 0 95.481 89.13558480777671" height="89.13558480777671" width="95.481"><g><svg viewBox="0 0 95.481 89.13558480777671" height="89.13558480777671" width="95.481"><g><svg viewBox="0 0 95.481 89.13558480777671" height="89.13558480777671" width="95.481"><g id="textblocktransform"><svg viewBox="0 0 95.481 89.13558480777671" height="89.13558480777671" width="95.481" id="textblock"><g><svg viewBox="0 0 95.481 89.13558480777671" height="89.13558480777671" width="95.481"><g><svg viewBox="0 0 95.481 89.13558480777671" height="89.13558480777671" width="95.481"><g><svg xmlns="http://www.w3.org/2000/svg" xmlns:xlink="http://www.w3.org/1999/xlink" version="1.1" x="0" y="0" viewBox="2.0022123204850386 4.526335003118509 95.84314755987215 89.4736649968815" enable-background="new 0 0 100 100" xml:space="preserve" height="89.13558480777671" width="95.481" class="icon-icon-0" data-fill-palette-color="accent" id="icon-0"><g fill="#ac6aff" data-fill-palette-color="accent"><path fill="#ac6aff" d="M25.306 18.053A1.62 1.62 0 0 0 22.212 19.014C22.555 20.136 23.116 23.379 21.599 24.888 20.248 26.231 17.086 27.141 15.982 27.378A1.621 1.621 0 0 0 16.659 30.547C17.16 30.44 21.617 29.439 23.885 27.186 27.109 23.979 25.382 18.293 25.306 18.053" data-fill-palette-color="accent"></path><path fill="#ac6aff" d="M96.641 61.979C96.307 61.007 95.601 58.723 95.443 57.155 95.408 56.79 95.78 55.791 96.08 54.986 97.014 52.478 98.427 48.69 96.697 44.138 95.091 39.907 92.326 37.094 90.412 35.54 91.568 34.554 92.602 32.896 92.133 29.631 91.052 22.099 90.134 20.683 83.201 15.862A93 93 0 0 0 81.302 14.62C78.842 13.032 74.726 10.374 72.961 8.893 69.229 5.761 62.27 3.42 58.247 5.071 52.027 7.62 50.988 16.231 50.946 16.596 50.944 16.608 50.948 16.62 50.946 16.633 50.944 16.644 50.941 16.654 50.94 16.666A2263 2263 0 0 0 49.912 32.756C49.391 24.131 48.929 17.324 48.885 16.666 48.884 16.655 48.88 16.645 48.88 16.633L48.879 16.596C48.837 16.23 47.799 7.619 41.583 5.072 37.56 3.423 30.603 5.761 26.875 8.894 25.111 10.375 20.998 13.032 18.54 14.62 17.642 15.201 16.95 15.648 16.641 15.863 9.711 20.684 8.793 22.099 7.711 29.632 7.242 32.897 8.275 34.554 9.432 35.541 7.518 37.094 4.756 39.908 3.15 44.139 1.422 48.691 2.833 52.479 3.768 54.987 4.067 55.792 4.439 56.791 4.403 57.156 4.231 58.882 3.439 61.293 3.205 61.983 2.363 63.295-0.435 69.024 7.15 78.504 9.68 81.666 12.453 81.457 14.901 81.272 16.805 81.126 18.604 80.991 20.67 82.309 21.603 82.905 21.867 83.864 22.252 85.505 22.771 87.718 23.481 90.75 27.393 92.543 29.701 93.603 31.725 94 33.565 94 36.434 94 38.858 93.031 41.234 92.083L41.491 91.979C47.235 89.69 48.022 85.481 48.122 84.042 48.864 83.302 49.454 82.567 49.912 81.823 50.37 82.567 50.961 83.302 51.704 84.042 51.803 85.48 52.59 89.691 58.337 91.979L58.594 92.083C60.971 93.033 63.396 94 66.267 94 68.108 94 70.132 93.601 72.445 92.543 76.356 90.75 77.068 87.718 77.588 85.505 77.973 83.863 78.234 82.904 79.17 82.309 81.237 80.991 83.037 81.126 84.942 81.272 87.389 81.459 90.164 81.668 92.696 78.505 100.289 69.018 97.48 63.287 96.641 61.979M59.477 8.07C62.005 7.032 67.654 8.67 70.876 11.377 72.797 12.989 77.022 15.715 79.543 17.344 80.397 17.896 81.055 18.318 81.35 18.524 87.552 22.837 87.977 23.486 88.926 30.093 89.285 32.593 88.51 33.038 87.341 33.711 87.09 33.854 86.851 33.994 86.698 34.102 85.569 34.589 79.411 34.077 78.031 33.215A1.619 1.619 0 1 0 76.314 35.962C77.665 36.806 81.53 37.524 84.632 37.524 85.544 37.524 86.386 37.459 87.082 37.319 87.245 37.39 87.413 37.444 87.588 37.46 89.054 38.507 92.062 41.062 93.668 45.291 94.964 48.701 93.898 51.559 93.043 53.856 92.599 55.047 92.231 56.091 92.225 57.087A1.6 1.6 0 0 0 91.886 57.595C89.175 64.125 85.838 70.117 84.49 70.909 82.68 70.699 82.47 69.93 82.16 67.857 81.874 65.942 81.392 62.738 77.096 62.738 75.978 62.738 74.92 62.967 73.96 63.312 74.196 62.681 74.428 62.052 74.655 61.433 75.134 60.118 75.59 58.877 75.998 57.997 76.827 56.212 77.837 55.242 79.089 55.033 81.698 54.587 85.054 57.393 86.134 58.511A1.621 1.621 0 0 0 88.473 56.268C87.958 55.732 83.304 51.051 78.561 51.835 76.207 52.228 74.356 53.841 73.059 56.633 72.592 57.635 72.117 58.94 71.613 60.319 71.393 60.916 71.155 61.569 70.899 62.242 69.306 60.86 67.776 60.651 66.729 60.515 66.291 60.46 65.875 60.406 65.773 60.296 64.957 59.409 66.677 56.975 67.854 55.768 70.792 54.283 74.744 52.015 75.845 49.024 79.56 48.919 86.997 46.411 88.816 41.695A1.623 1.623 0 0 0 87.887 39.6 1.623 1.623 0 0 0 85.791 40.529C84.671 43.434 78.822 45.793 75.597 45.793 75.533 45.793 75.458 45.76 75.389 45.737A1.6 1.6 0 0 0 75.098 45.589C73.325 44.389 70.46 37.641 70.197 34.319 70.055 32.554 70.588 31.245 71.1 29.98 71.421 29.191 71.724 28.445 71.848 27.632 72.144 25.711 70.727 24.439 69.589 23.416 69.009 22.894 68.406 22.353 68.16 21.859 67.072 19.684 70.192 17.841 70.324 17.764A1.62 1.62 0 0 0 70.926 15.557 1.617 1.617 0 0 0 68.717 14.951C66.662 16.121 63.295 19.375 65.262 23.308 65.784 24.352 66.656 25.134 67.424 25.826 67.55 25.94 67.701 26.075 67.854 26.218 66.975 26.048 65.667 25.595 64.787 25.289 62.344 24.437 60.036 23.633 58.377 24.456A2.8 2.8 0 0 0 56.946 26.135C56.095 28.75 58.077 31.724 59.824 34.35 60.597 35.511 61.474 36.827 61.64 37.516 62.08 39.34 61.942 40.728 61.228 41.644 60.082 43.116 57.705 43.166 57.655 43.167A1.62 1.62 0 0 0 57.663 46.408C57.823 46.408 61.627 46.376 63.766 43.66 65.132 41.924 65.478 39.601 64.791 36.756 64.49 35.508 63.578 34.139 62.522 32.554 61.448 30.94 59.855 28.549 59.985 27.34 60.738 27.338 62.583 27.952 63.72 28.348 65.172 28.855 66.574 29.331 67.818 29.466 67.315 30.772 66.796 32.448 66.967 34.575 67.151 36.878 69.344 44.843 72.842 47.859 72.403 49.301 69.842 51.181 65.209 53.464 64.35 53.887 63.956 54.082 63.681 54.291A0.44 0.44 0 0 1 63.334 54.39C63.173 54.356 62.986 54.17 62.82 53.884 62.707 53.684 62.632 53.258 62.561 52.843 62.322 51.454 61.824 48.567 57.586 48.567 55.361 48.567 53.508 50.608 52.053 53.192 52.694 39.242 53.84 21.847 54.115 17.771 55.245 18.256 56.907 18.811 58.612 18.811 59.327 18.811 60.049 18.713 60.743 18.472 62.263 17.941 63.404 16.792 64.049 15.148A1.621 1.621 0 0 0 61.032 13.967C60.636 14.973 60.07 15.273 59.678 15.411 58.176 15.936 55.838 15.035 54.726 14.482 55.391 12.26 56.772 9.178 59.477 8.07M6.177 45.289C7.772 41.088 10.798 38.513 12.261 37.459 12.435 37.442 12.6 37.39 12.759 37.32 13.455 37.459 14.295 37.524 15.208 37.524 18.311 37.524 22.173 36.806 23.523 35.962A1.62 1.62 0 0 0 21.806 33.215C20.428 34.077 14.273 34.59 13.212 34.141A13 13 0 0 0 12.502 33.711C11.332 33.038 10.559 32.595 10.918 30.093 11.867 23.485 12.292 22.836 18.491 18.523A93 93 0 0 1 20.299 17.343C22.82 15.714 27.04 12.988 28.959 11.376 32.18 8.671 37.823 7.033 40.354 8.071 43.08 9.189 44.453 12.261 45.11 14.483 44.013 15.038 41.68 15.95 40.158 15.418 39.764 15.28 39.197 14.981 38.801 13.972A1.62 1.62 0 1 0 35.785 15.153C36.428 16.797 37.571 17.947 39.092 18.477A6.4 6.4 0 0 0 41.22 18.816C42.923 18.816 44.584 18.261 45.714 17.776 45.988 21.854 47.133 39.247 47.775 53.195 46.319 50.612 44.468 48.571 42.245 48.571 38.009 48.571 37.511 51.458 37.272 52.847 37.201 53.26 37.127 53.688 37.013 53.888 36.848 54.174 36.661 54.36 36.499 54.394 36.397 54.417 36.267 54.379 36.156 54.295 35.879 54.086 35.487 53.891 34.627 53.468 29.994 51.185 27.437 49.303 26.998 47.862 30.493 44.845 32.687 36.883 32.871 34.579 33.04 32.452 32.523 30.776 32.02 29.47 33.264 29.335 34.664 28.859 36.115 28.352 37.252 27.956 39.101 27.348 39.847 27.344 39.976 28.553 38.385 30.945 37.311 32.558 36.257 34.143 35.346 35.512 35.044 36.76 34.357 39.606 34.703 41.928 36.07 43.666 38.208 46.38 42.009 46.412 42.17 46.412A1.621 1.621 0 0 0 42.17 43.171C42.147 43.171 39.753 43.107 38.616 41.661 37.895 40.744 37.752 39.351 38.194 37.521 38.361 36.83 39.236 35.515 40.008 34.354 41.755 31.728 43.735 28.753 42.885 26.139A2.8 2.8 0 0 0 41.453 24.46C39.796 23.637 37.488 24.441 35.046 25.293 34.165 25.6 32.86 26.053 31.983 26.222 32.135 26.079 32.287 25.944 32.413 25.829 33.181 25.138 34.051 24.356 34.573 23.312 36.54 19.378 33.175 16.125 31.12 14.955A1.62 1.62 0 0 0 29.51 17.767C29.644 17.844 32.762 19.686 31.674 21.862 31.428 22.356 30.827 22.897 30.246 23.419 29.107 24.441 27.692 25.714 27.988 27.636 28.114 28.448 28.416 29.194 28.736 29.984 29.25 31.25 29.78 32.558 29.64 34.322 29.376 37.643 26.515 44.389 24.741 45.591 24.639 45.632 24.541 45.682 24.449 45.74 24.38 45.763 24.308 45.796 24.242 45.796 21.02 45.796 15.172 43.437 14.052 40.532A1.62 1.62 0 0 0 11.028 41.698C12.846 46.413 20.28 48.921 23.994 49.027 25.094 52.018 29.047 54.286 31.984 55.772 33.163 56.975 34.885 59.406 34.06 60.299 33.959 60.408 33.545 60.463 33.106 60.518 32.059 60.654 30.529 60.863 28.939 62.244A147 147 0 0 1 28.226 60.322C27.721 58.943 27.245 57.64 26.779 56.636 25.484 53.844 23.633 52.231 21.279 51.838 16.538 51.052 11.885 55.734 11.37 56.273A1.621 1.621 0 0 0 13.71 58.514C14.706 57.473 18.141 54.586 20.747 55.035 21.998 55.243 23.011 56.212 23.84 58 24.249 58.88 24.702 60.12 25.182 61.435 25.409 62.055 25.64 62.684 25.877 63.315 24.919 62.97 23.86 62.741 22.742 62.741 18.447 62.741 17.967 65.945 17.68 67.86 17.369 69.932 17.161 70.702 15.352 70.912 14.005 70.12 10.671 64.128 7.96 57.598A1.6 1.6 0 0 0 7.621 57.088C7.614 56.093 7.246 55.05 6.804 53.859 5.946 51.559 4.882 48.7 6.177 45.289M45.426 82.145C44.019 83.43 42.539 83.978 40.915 83.815 36.512 83.381 32.528 78.067 32.45 77.961A1.62 1.62 0 1 0 29.837 79.876C30.034 80.145 34.719 86.454 40.585 87.04A8.3 8.3 0 0 0 43.527 86.82C42.845 87.586 41.828 88.359 40.293 88.97L40.033 89.074C36.322 90.556 33.39 91.726 28.741 89.595 26.273 88.464 25.889 86.831 25.405 84.765 24.982 82.957 24.502 80.911 22.412 79.577 19.438 77.678 16.786 77.878 14.655 78.038 12.46 78.204 11.14 78.305 9.679 76.479 2.912 68.02 5.819 63.878 5.925 63.732L6.19 63.26C6.205 63.217 6.325 62.878 6.491 62.36 10.03 70.197 12.981 74.163 15.283 74.163 15.344 74.163 15.404 74.159 15.463 74.155 20.075 73.731 20.582 70.354 20.883 68.338 21.193 66.275 21.33 65.978 22.741 65.978 25.182 65.978 27.399 67.747 28.153 68.418 29.296 70.439 30.674 72.023 32.457 72.586 34.927 73.364 36.174 73.163 37.753 72.91 37.987 72.873 38.234 72.833 38.502 72.794 39.756 72.608 40.694 72.805 41.375 73.388 42.524 74.371 42.792 76.365 42.798 77.042A1.62 1.62 0 0 0 46.038 77.042C46.038 76.641 45.966 73.073 43.502 70.944 42.528 70.102 40.787 69.182 38.032 69.587 37.747 69.63 37.485 69.672 37.237 69.711 35.815 69.94 35.169 70.045 33.431 69.496 32.527 69.211 31.665 68.092 30.877 66.642L30.913 66.612C30.883 66.569 30.19 65.543 30.748 64.969 31.73 63.959 32.559 63.852 33.517 63.729 34.419 63.613 35.539 63.467 36.439 62.492 37.774 61.045 37.716 59.258 37.058 57.573 37.089 57.568 37.12 57.57 37.151 57.565 38.238 57.338 39.187 56.603 39.821 55.493 40.219 54.8 40.347 54.054 40.461 53.394 40.693 52.051 40.734 51.808 42.241 51.808 43.926 51.808 46.706 57.767 48.148 63.235 48.195 65.079 48.217 66.699 48.207 68.014 48.195 69.542 48.227 70.91 48.254 72.116 48.371 77.279 48.418 79.414 45.426 82.145M90.165 76.48C88.702 78.306 87.38 78.205 85.186 78.039 83.055 77.878 80.402 77.678 77.426 79.577 75.333 80.911 74.855 82.958 74.431 84.765 73.947 86.832 73.563 88.465 71.092 89.596 66.441 91.731 63.507 90.557 59.794 89.074L59.535 88.97C57.998 88.359 56.981 87.585 56.299 86.82A8.3 8.3 0 0 0 59.244 87.04C65.112 86.454 69.8 80.144 69.996 79.877A1.62 1.62 0 0 0 69.648 77.612 1.624 1.624 0 0 0 67.382 77.961C66.28 79.465 62.612 83.447 58.921 83.815 57.283 83.985 55.81 83.433 54.4 82.146 51.404 79.416 51.453 77.281 51.57 72.12 51.597 70.913 51.628 69.546 51.616 68.017 51.607 66.701 51.629 65.08 51.676 63.237 53.115 57.769 55.896 51.811 57.586 51.811 59.094 51.811 59.135 52.054 59.367 53.399 59.48 54.056 59.608 54.802 60.007 55.496 60.641 56.606 61.589 57.341 62.676 57.568 62.708 57.573 62.739 57.571 62.771 57.576 62.112 59.261 62.054 61.048 63.391 62.495 64.292 63.471 65.412 63.616 66.313 63.732 67.273 63.855 68.102 63.962 69.085 64.972 69.643 65.545 68.949 66.572 68.93 66.603L68.964 66.632C68.174 68.088 67.309 69.211 66.402 69.498 64.662 70.047 64.014 69.942 62.592 69.713 62.344 69.674 62.082 69.632 61.797 69.589 59.039 69.188 57.298 70.105 56.324 70.947 53.86 73.076 53.789 76.642 53.789 77.044A1.62 1.62 0 0 0 57.029 77.044C57.029 76.414 57.29 74.396 58.443 73.398 59.125 72.81 60.066 72.608 61.327 72.796 61.596 72.835 61.844 72.875 62.077 72.912 63.659 73.167 64.905 73.366 67.375 72.588 69.162 72.026 70.537 70.442 71.682 68.42 72.441 67.743 74.656 65.98 77.095 65.98 78.507 65.98 78.646 66.277 78.955 68.34 79.258 70.358 79.765 73.734 84.377 74.157 84.438 74.161 84.497 74.165 84.557 74.165 86.862 74.164 89.814 70.198 93.355 62.36 93.521 62.881 93.642 63.219 93.657 63.262L93.922 63.734C93.953 63.773 96.967 67.982 90.165 76.48" data-fill-palette-color="accent"></path><path fill="#ac6aff" d="M83.18 30.547A1.621 1.621 0 0 0 83.857 27.378C82.829 27.159 79.589 26.232 78.239 24.888 76.719 23.379 77.281 20.137 77.623 19.019A1.62 1.62 0 1 0 74.531 18.051C74.455 18.292 72.727 23.977 75.954 27.186 78.221 29.439 82.68 30.44 83.18 30.547" data-fill-palette-color="accent"></path></g></svg></g></svg></g></svg></g></svg></g></svg></g></svg></g><defs></defs></svg><rect width="95.481" height="89.13558480777671" fill="none" stroke="none" visibility="hidden"></rect></g></svg></g></svg>