<svg xmlns="http://www.w3.org/2000/svg" version="1.1" xmlns:xlink="http://www.w3.org/1999/xlink" xmlns:svgjs="http://svgjs.dev/svgjs" width="2000" height="1500" viewBox="0 0 2000 1500"><rect width="2000" height="1500" fill="#0e0c15"></rect><g transform="matrix(0.75,0,0,0.75,249.090909090909,278.98548387096776)"><svg viewBox="0 0 396 248" data-background-color="#0e0c15" preserveAspectRatio="xMidYMid meet" height="1252" width="2000" xmlns="http://www.w3.org/2000/svg" xmlns:xlink="http://www.w3.org/1999/xlink"><g id="tight-bounds" transform="matrix(1,0,0,1,0.2400000000000091,0.4000000000000057)"><svg viewBox="0 0 395.52 247.2" height="247.2" width="395.52"><g><svg></svg></g><g><svg viewBox="0 0 395.52 247.2" height="247.2" width="395.52"><g transform="matrix(1,0,0,1,75.54432,95.01041917766639)"><svg viewBox="0 0 244.43135999999998 57.1791616446672" height="57.1791616446672" width="244.43135999999998"><g><svg viewBox="0 0 364.38733525566744 85.24013589685606" height="57.1791616446672" width="244.43135999999998"><g transform="matrix(1,0,0,1,119.95597525566745,13.798187192901011)"><svg viewBox="0 0 244.43135999999998 57.64376151105404" height="57.64376151105404" width="244.43135999999998"><g id="textblocktransform"><svg viewBox="0 0 244.43135999999998 57.64376151105404" height="57.64376151105404" width="244.43135999999998" id="textblock"><g><svg viewBox="0 0 244.43135999999998 32.63945691524829" height="32.63945691524829" width="244.43135999999998"><g transform="matrix(1,0,0,1,0,0)"><svg width="244.43135999999998" viewBox="0.6 -37.6 284.91999999999996 38.050000000000004" height="32.63945691524829" data-palette-color="#ffffff"><path d="M11.35 0.1L10.65 0.1Q8.75 0.1 8.75-1L8.75-1 8.75-31.2 1.55-31.2Q0.6-31.2 0.6-32.7L0.6-32.7 0.6-33.5Q0.6-35 1.55-35L1.55-35 20.35-35Q21.35-35 21.35-33.5L21.35-33.5 21.35-32.7Q21.35-31.2 20.35-31.2L20.35-31.2 13.25-31.2 13.25-1Q13.25 0.1 11.35 0.1L11.35 0.1ZM31.25 0.3L31.25 0.3Q26.25 0.3 23.7-2.95 21.15-6.2 21.15-12.9L21.15-12.9Q21.15-19.55 23.65-23 26.15-26.45 31-26.45L31-26.45Q35.35-26.45 37.55-23.1 39.75-19.75 39.75-13.35L39.75-13.35Q39.75-11.35 38-11.35L38-11.35 25.55-11.35Q25.7-7.2 27.1-5.25 28.5-3.3 31.55-3.3L31.55-3.3Q33.3-3.3 34.65-3.8 36-4.3 36.87-4.78 37.75-5.25 38-5.25L38-5.25Q38.5-5.25 38.82-4.38 39.15-3.5 39.15-2.9L39.15-2.9Q39.15-2.45 38.1-1.68 37.05-0.9 35.27-0.3 33.5 0.3 31.25 0.3ZM25.6-14.95L25.6-14.95 35.5-14.95Q35.5-22.85 30.85-22.85L30.85-22.85Q25.75-22.85 25.6-14.95ZM53.75 0.3L53.75 0.3Q48.7 0.3 46.15-3.1 43.6-6.5 43.6-12.95L43.6-12.95Q43.6-19.45 46.15-22.95 48.7-26.45 53.75-26.45L53.75-26.45Q55.2-26.45 56.55-26.18 57.9-25.9 58.75-25.45 59.6-25 59.6-24.55L59.6-24.55Q59.6-23.95 59.3-23 59-22.05 58.5-22.05L58.5-22.05Q58.1-22.05 56.87-22.45 55.65-22.85 53.65-22.85L53.65-22.85Q50.7-22.85 49.35-20.48 48-18.1 48-13.05L48-13.05Q48-8.05 49.35-5.68 50.7-3.3 53.65-3.3L53.65-3.3Q55.75-3.3 57.07-3.83 58.4-4.35 58.8-4.35L58.8-4.35Q59.3-4.35 59.6-3.4 59.9-2.45 59.9-1.85L59.9-1.85Q59.9-1.4 59-0.9 58.1-0.4 56.7-0.05 55.3 0.3 53.75 0.3ZM65.84 0.1L65.44 0.1Q64.34 0.1 63.92-0.2 63.49-0.5 63.49-1L63.49-1 63.49-36.5Q63.49-37.6 65.39-37.6L65.39-37.6 65.89-37.6Q67.79-37.6 67.79-36.5L67.79-36.5 67.79-23.1Q68.79-24.5 70.44-25.48 72.09-26.45 74.09-26.45L74.09-26.45Q75.84-26.45 77.34-25.75 78.84-25.05 79.77-23.55 80.69-22.05 80.69-19.6L80.69-19.6 80.69-1Q80.69-0.5 80.27-0.2 79.84 0.1 78.74 0.1L78.74 0.1 78.34 0.1Q77.24 0.1 76.82-0.2 76.39-0.5 76.39-1L76.39-1 76.39-18.75Q76.39-20.65 75.47-21.73 74.54-22.8 72.64-22.8L72.64-22.8Q71.34-22.8 70.29-22.18 69.24-21.55 68.62-20.73 67.99-19.9 67.79-19.3L67.79-19.3 67.79-1Q67.79-0.5 67.37-0.2 66.94 0.1 65.84 0.1L65.84 0.1ZM96.94 0.1L96.54 0.1Q95.44 0.1 95.01-0.2 94.59-0.5 94.59-1L94.59-1 94.59-25.15Q94.59-25.7 95.01-25.98 95.44-26.25 96.54-26.25L96.54-26.25 96.94-26.25Q98.04-26.25 98.46-25.98 98.89-25.7 98.89-25.15L98.89-25.15 98.89-1Q98.89-0.5 98.46-0.2 98.04 0.1 96.94 0.1L96.94 0.1ZM96.74-29.75L96.74-29.75Q95.54-29.75 95.04-30.05 94.54-30.35 94.54-30.85L94.54-30.85 94.54-33.85Q94.54-34.35 95.04-34.65 95.54-34.95 96.74-34.95L96.74-34.95Q97.94-34.95 98.44-34.68 98.94-34.4 98.94-33.85L98.94-33.85 98.94-30.85Q98.94-30.35 98.44-30.05 97.94-29.75 96.74-29.75ZM108.44 0.1L108.04 0.1Q106.94 0.1 106.51-0.2 106.09-0.5 106.09-1L106.09-1 106.09-18.65Q106.09-21.75 105.84-23.18 105.59-24.6 105.59-25.1L105.59-25.1Q105.59-25.65 106.64-25.88 107.69-26.1 108.49-26.1L108.49-26.1Q109.19-26.1 109.46-25.35 109.74-24.6 110.09-22.7L110.09-22.7Q111.34-24.45 113.01-25.45 114.69-26.45 116.69-26.45L116.69-26.45Q118.44-26.45 119.94-25.75 121.44-25.05 122.36-23.55 123.29-22.05 123.29-19.6L123.29-19.6 123.29-1Q123.29-0.5 122.86-0.2 122.44 0.1 121.34 0.1L121.34 0.1 120.94 0.1Q119.84 0.1 119.41-0.2 118.99-0.5 118.99-1L118.99-1 118.99-18.75Q118.99-20.65 118.06-21.73 117.14-22.8 115.24-22.8L115.24-22.8Q113.94-22.8 112.89-22.18 111.84-21.55 111.21-20.73 110.59-19.9 110.39-19.3L110.39-19.3 110.39-1Q110.39-0.5 109.96-0.2 109.54 0.1 108.44 0.1L108.44 0.1ZM132.68 0.1L132.28 0.1Q131.18 0.1 130.76-0.2 130.33-0.5 130.33-1L130.33-1 130.33-18.65Q130.33-21.75 130.08-23.18 129.83-24.6 129.83-25.1L129.83-25.1Q129.83-25.65 130.88-25.88 131.93-26.1 132.73-26.1L132.73-26.1Q133.43-26.1 133.71-25.35 133.98-24.6 134.33-22.7L134.33-22.7Q135.58-24.45 137.26-25.45 138.93-26.45 140.93-26.45L140.93-26.45Q142.68-26.45 144.18-25.75 145.68-25.05 146.61-23.55 147.53-22.05 147.53-19.6L147.53-19.6 147.53-1Q147.53-0.5 147.11-0.2 146.68 0.1 145.58 0.1L145.58 0.1 145.18 0.1Q144.08 0.1 143.66-0.2 143.23-0.5 143.23-1L143.23-1 143.23-18.75Q143.23-20.65 142.31-21.73 141.38-22.8 139.48-22.8L139.48-22.8Q138.18-22.8 137.13-22.18 136.08-21.55 135.46-20.73 134.83-19.9 134.63-19.3L134.63-19.3 134.63-1Q134.63-0.5 134.21-0.2 133.78 0.1 132.68 0.1L132.68 0.1ZM162.83 0.3L162.83 0.3Q158.13 0.3 155.66-3.1 153.18-6.5 153.18-12.95L153.18-12.95Q153.18-19.45 155.66-22.95 158.13-26.45 162.83-26.45L162.83-26.45Q167.48-26.45 169.91-22.98 172.33-19.5 172.33-12.95L172.33-12.95Q172.33-6.45 169.93-3.08 167.53 0.3 162.83 0.3ZM162.73-3.3L162.73-3.3Q165.38-3.3 166.66-5.68 167.93-8.05 167.93-13.05L167.93-13.05Q167.93-18.05 166.66-20.45 165.38-22.85 162.73-22.85L162.73-22.85Q160.03-22.85 158.81-20.48 157.58-18.1 157.58-13.05L157.58-13.05Q157.58-8.05 158.81-5.68 160.03-3.3 162.73-3.3ZM185.38 0.1L183.28 0.1Q182.63 0.1 182.13-0.1 181.63-0.3 181.48-0.95L181.48-0.95 175.28-24.7Q175.23-24.9 175.2-25.08 175.18-25.25 175.18-25.4L175.18-25.4Q175.18-26.25 177.13-26.25L177.13-26.25 177.78-26.25Q178.48-26.25 178.98-26.08 179.48-25.9 179.58-25.45L179.58-25.45 184.38-4.4 184.58-4.4 189.18-25.45Q189.28-25.9 189.8-26.08 190.33-26.25 191.03-26.25L191.03-26.25 191.63-26.25Q193.43-26.25 193.43-25.4L193.43-25.4Q193.43-25.25 193.43-25.1 193.43-24.95 193.33-24.7L193.33-24.7 187.13-0.95Q186.98-0.3 186.5-0.1 186.03 0.1 185.38 0.1L185.38 0.1ZM203.13 0.3L203.13 0.3Q199.93 0.3 198-1.68 196.08-3.65 196.08-7.45L196.08-7.45Q196.08-10.45 197.3-12.28 198.53-14.1 200.5-15.03 202.48-15.95 204.83-16.25 207.18-16.55 209.43-16.55L209.43-16.55 209.43-18.95Q209.43-20.5 208.5-21.68 207.58-22.85 205.18-22.85L205.18-22.85Q203.33-22.85 201.8-22.45 200.28-22.05 199.33-21.63 198.38-21.2 198.08-21.2L198.08-21.2Q197.58-21.2 197.28-22.15 196.98-23.1 196.98-23.7L196.98-23.7Q196.98-24.15 198.23-24.8 199.48-25.45 201.38-25.95 203.28-26.45 205.23-26.45L205.23-26.45Q209.23-26.45 211.48-24.45 213.73-22.45 213.73-18.9L213.73-18.9 213.73-7.4Q213.73-4.35 213.98-2.93 214.23-1.5 214.23-1.15L214.23-1.15Q214.23-0.55 213.18-0.25 212.13 0.05 211.33 0.05L211.33 0.05Q210.68 0.05 210.4-0.68 210.13-1.4 209.78-3.15L209.78-3.15Q208.53-1.55 206.9-0.63 205.28 0.3 203.13 0.3ZM203.93-3.25L203.93-3.25Q205.68-3.25 207.05-4.1 208.43-4.95 209.43-6.5L209.43-6.5 209.43-13Q204.53-13 202.5-11.88 200.48-10.75 200.48-7.5L200.48-7.5Q200.48-3.25 203.93-3.25ZM226.92 0.3L226.92 0.3Q225.87 0.3 224.57-0.15 223.27-0.6 222.35-1.93 221.42-3.25 221.42-5.8L221.42-5.8 221.42-22.55 219.42-22.55Q218.42-22.55 218.42-24.05L218.42-24.05 218.42-24.65Q218.42-26.15 219.42-26.15L219.42-26.15 221.42-26.15 222.02-31.4Q222.17-32.5 223.57-32.5L223.57-32.5 223.97-32.5Q224.97-32.5 225.35-32.23 225.72-31.95 225.72-31.4L225.72-31.4 225.72-26.15 229.07-26.15Q230.07-26.15 230.07-24.65L230.07-24.65 230.07-24.05Q230.07-22.55 229.07-22.55L229.07-22.55 225.72-22.55 225.72-6.3Q225.72-4.55 226.1-3.93 226.47-3.3 227.57-3.3L227.57-3.3Q228.47-3.3 228.9-3.43 229.32-3.55 229.57-3.55L229.57-3.55Q229.92-3.55 230.1-3.05 230.27-2.55 230.32-1.98 230.37-1.4 230.37-1.15L230.37-1.15Q230.37-0.65 229.77-0.33 229.17 0 228.37 0.15 227.57 0.3 226.92 0.3ZM243.07 0.3L243.07 0.3Q238.37 0.3 235.9-3.1 233.42-6.5 233.42-12.95L233.42-12.95Q233.42-19.45 235.9-22.95 238.37-26.45 243.07-26.45L243.07-26.45Q247.72-26.45 250.15-22.98 252.57-19.5 252.57-12.95L252.57-12.95Q252.57-6.45 250.17-3.08 247.77 0.3 243.07 0.3ZM242.97-3.3L242.97-3.3Q245.62-3.3 246.9-5.68 248.17-8.05 248.17-13.05L248.17-13.05Q248.17-18.05 246.9-20.45 245.62-22.85 242.97-22.85L242.97-22.85Q240.27-22.85 239.05-20.48 237.82-18.1 237.82-13.05L237.82-13.05Q237.82-8.05 239.05-5.68 240.27-3.3 242.97-3.3ZM260.52 0.1L260.32 0.1Q258.32 0.1 258.32-1L258.32-1 258.32-18.65Q258.32-21.75 258.07-23.18 257.82-24.6 257.82-25.1L257.82-25.1Q257.82-25.65 258.87-25.88 259.92-26.1 260.72-26.1L260.72-26.1Q261.42-26.1 261.69-25.38 261.97-24.65 262.32-22.75L262.32-22.75Q263.62-24.5 265.32-25.48 267.02-26.45 268.57-26.45L268.57-26.45Q269.42-26.45 269.72-26.05 270.02-25.65 270.02-24.85L270.02-24.85Q270.02-23.75 269.72-22.93 269.42-22.1 268.97-22.1L268.97-22.1Q268.62-22.1 268.14-22.23 267.67-22.35 266.72-22.35L266.72-22.35Q265.32-22.35 264.17-21.48 263.02-20.6 262.62-19.3L262.62-19.3 262.62-1Q262.62 0.1 260.52 0.1L260.52 0.1ZM277.82 0.45L277.82 0.45Q275.92 0.45 274.37-0.1 272.82-0.65 271.92-1.38 271.02-2.1 271.02-2.65L271.02-2.65Q271.02-3 271.32-3.6 271.62-4.2 272.04-4.7 272.47-5.2 272.72-5.2L272.72-5.2Q272.92-5.2 273.54-4.73 274.17-4.25 275.19-3.75 276.22-3.25 277.62-3.25L277.62-3.25Q279.42-3.25 280.42-4.15 281.42-5.05 281.42-6.9L281.42-6.9Q281.42-8.7 280.24-9.83 279.07-10.95 277.02-11.9L277.02-11.9Q274.42-13.15 273.02-14.83 271.62-16.5 271.62-19.4L271.62-19.4Q271.62-22.6 273.72-24.55 275.82-26.5 278.97-26.5L278.97-26.5Q280.32-26.5 281.59-26.2 282.87-25.9 283.69-25.43 284.52-24.95 284.52-24.35L284.52-24.35Q284.52-24 284.24-23.35 283.97-22.7 283.62-22.18 283.27-21.65 282.97-21.65L282.97-21.65Q282.77-21.65 281.79-22.28 280.82-22.9 279.22-22.9L279.22-22.9Q277.82-22.9 276.82-22.13 275.82-21.35 275.82-19.85L275.82-19.85Q275.82-18.15 276.92-17.13 278.02-16.1 279.57-15.35L279.57-15.35Q282.47-13.95 283.99-12.13 285.52-10.3 285.52-7L285.52-7Q285.52-4.7 284.47-3.03 283.42-1.35 281.69-0.45 279.97 0.45 277.82 0.45Z" opacity="1" transform="matrix(1,0,0,1,0,0)" fill="#ffffff" class="wordmark-text-0" data-fill-palette-color="primary" id="text-0"></path></svg></g></svg></g><g transform="matrix(1,0,0,1,0,40.34484934597244)"><svg viewBox="0 0 244.43135999999998 17.298912165081592" height="17.298912165081592" width="244.43135999999998"><g transform="matrix(1,0,0,1,0,0)"><svg width="244.43135999999998" viewBox="-0.1 -36.5 701.5500000000001 49.65" height="17.298912165081592" data-palette-color="#ac6aff"><path d="M32.85 0.45L24.55-26.55 24.35-26.55 16.9 0 12.3 0.45 4.15-30.8Q3.8-31.65 2.98-32.08 2.15-32.5-0.1-32.95L-0.1-32.95 0.05-34.4Q1.65-34.35 3.25-34.3 4.85-34.25 6.7-34.25L6.7-34.25Q10.3-34.25 13.45-34.4L13.45-34.4 13.6-32.95Q11.6-32.55 10.4-32.18 9.2-31.8 9.2-31.1L9.2-31.1Q9.2-30.95 9.7-28.78 10.2-26.6 11.08-23 11.95-19.4 13.05-14.88 14.15-10.35 15.3-5.45L15.3-5.45 15.55-5.45Q16.8-9.55 17.98-13.68 19.15-17.8 20.15-21.48 21.15-25.15 21.9-28.05 22.65-30.95 23.08-32.6 23.5-34.25 23.5-34.25L23.5-34.25 26.75-34.25 35.55-5.45 35.8-5.45Q36.45-8.25 37.23-11.5 38-14.75 38.78-18 39.55-21.25 40.15-24.03 40.75-26.8 41.13-28.68 41.5-30.55 41.5-31.05L41.5-31.05Q41.5-31.75 40.38-32.15 39.25-32.55 37.2-32.95L37.2-32.95 37.35-34.4Q38.95-34.35 40.55-34.3 42.15-34.25 44-34.25L44-34.25Q45.9-34.25 47.03-34.3 48.15-34.35 49.7-34.4L49.7-34.4 49.85-32.95Q47.6-32.5 46.6-31.98 45.6-31.45 45.35-30.5L45.35-30.5Q45.35-30.5 44.98-28.98 44.6-27.45 43.95-24.88 43.3-22.3 42.48-19.07 41.65-15.85 40.75-12.4 39.85-8.95 39-5.75 38.15-2.55 37.45 0L37.45 0 32.85 0.45ZM72.38-4.15L72.38-4.15 72.98-2.65Q71.43-1.4 69.36-0.48 67.28 0.45 64.78 0.45L64.78 0.45Q61.08 0.45 58.71-1.03 56.33-2.5 55.21-4.95 54.08-7.4 54.08-10.35L54.08-10.35Q54.08-12.75 54.76-15 55.43-17.25 56.83-19.05 58.23-20.85 60.53-21.93 62.83-23 66.03-23L66.03-23Q67.83-23 69.58-22.15 71.33-21.3 72.48-19.43 73.63-17.55 73.63-14.45L73.63-14.45 71.93-12.4Q71.73-12.45 71.26-12.45 70.78-12.45 70.08-12.45L70.08-12.45Q68.83-12.45 67.13-12.43 65.43-12.4 63.68-12.35 61.93-12.3 60.48-12.23 59.03-12.15 58.33-12.1L58.33-12.1 58.33-11.65Q58.33-6.95 60.31-4.75 62.28-2.55 65.43-2.55L65.43-2.55Q67.28-2.55 68.93-2.95 70.58-3.35 72.38-4.15ZM69.13-16L69.13-16Q69.13-17.7 68.46-18.68 67.78-19.65 66.81-20.1 65.83-20.55 64.93-20.55L64.93-20.55Q62.48-20.55 60.83-18.63 59.18-16.7 58.63-14.15L58.63-14.15 68.98-14.55Q69.13-15.3 69.13-16ZM145.2-1.3L145.2-1.3 145.05 0.15Q143.85 0.05 142.4 0.03 140.95 0 139.65 0L139.65 0Q138.4 0 136.82 0.03 135.25 0.05 134.05 0.15L134.05 0.15 134.2-1.3Q134.75-1.35 135.45-1.5 136.15-1.65 136.72-1.9 137.3-2.15 137.35-2.4L137.35-2.4Q137.35-2.4 137.45-3.15 137.55-3.9 137.65-5.85 137.75-7.8 137.75-11.45L137.75-11.45 137.75-16.7Q137.75-18.55 136.67-19.23 135.6-19.9 134-19.9L134-19.9Q132.25-19.9 130.3-19.3 128.35-18.7 127.1-18.2L127.1-18.2 127.1-11.45Q127.1-7.8 127.22-5.85 127.35-3.9 127.47-3.15 127.6-2.4 127.6-2.4L127.6-2.4Q127.65-2.15 128.22-1.9 128.8-1.65 129.55-1.5 130.3-1.35 130.8-1.3L130.8-1.3 130.65 0.15Q129.45 0.05 128 0.03 126.55 0 125.25 0L125.25 0Q124 0 122.42 0.03 120.85 0.05 119.65 0.15L119.65 0.15 119.8-1.3Q120.35-1.35 121.05-1.5 121.75-1.65 122.32-1.9 122.9-2.15 122.95-2.4L122.95-2.4Q122.95-2.4 123.05-3.15 123.15-3.9 123.25-5.85 123.35-7.8 123.35-11.45L123.35-11.45 123.35-16.7Q123.35-18.55 122.27-19.23 121.2-19.9 119.6-19.9L119.6-19.9Q118.45-19.9 117.12-19.58 115.8-19.25 114.65-18.85 113.5-18.45 112.75-18.1L112.75-18.1 112.75-11.45Q112.75-7.8 112.9-5.85 113.05-3.9 113.17-3.15 113.3-2.4 113.3-2.4L113.3-2.4Q113.35-2.15 113.92-1.9 114.5-1.65 115.25-1.5 116-1.35 116.5-1.3L116.5-1.3 116.35 0.15Q115.15 0.05 113.7 0.03 112.25 0 110.95 0L110.95 0Q109.7 0 108.12 0.03 106.55 0.05 105.35 0.15L105.35 0.15 105.5-1.3Q106.05-1.35 106.75-1.5 107.45-1.65 108.02-1.9 108.6-2.15 108.65-2.4L108.65-2.4Q108.65-2.4 108.75-3.15 108.85-3.9 108.92-5.85 109-7.8 109-11.45L109-11.45Q109-15.1 108.9-16.88 108.8-18.65 108.7-19.23 108.6-19.8 108.6-19.8L108.6-19.8 105.4-20.75 105.3-22.05Q106.2-22.05 107.42-22.18 108.65-22.3 109.85-22.53 111.05-22.75 111.9-22.95L111.9-22.95 112.85-22.5Q112.85-22.5 112.82-21.73 112.8-20.95 112.8-20.1L112.8-20.1Q113.8-20.7 115.35-21.38 116.9-22.05 118.65-22.53 120.4-23 122-23L122-23Q123.7-23 125.02-22.35 126.35-21.7 126.85-20.1L126.85-20.1Q127.85-20.7 129.47-21.38 131.1-22.05 132.92-22.53 134.75-23 136.4-23L136.4-23Q138.55-23 140.02-21.98 141.5-20.95 141.5-18.25L141.5-18.25 141.5-11.45Q141.5-7.8 141.62-5.85 141.75-3.9 141.87-3.15 142-2.4 142-2.4L142-2.4Q142.05-2.15 142.62-1.9 143.2-1.65 143.95-1.5 144.7-1.35 145.2-1.3ZM176.13-2.6L176.13-2.6 176.63-1.3Q174.73 0.45 172.48 0.45L172.48 0.45Q171.23 0.45 170.23-0.33 169.23-1.1 168.98-2.8L168.98-2.8Q167.13-1.4 165.3-0.48 163.48 0.45 161.38 0.45L161.38 0.45Q159.38 0.45 157.8-0.8 156.23-2.05 156.23-4.75L156.23-4.75Q156.23-6.55 157.38-8.28 158.53-10 161.3-11.23 164.08-12.45 168.83-12.75L168.83-12.75 168.83-17.4Q168.83-18.85 167.75-19.58 166.68-20.3 165.18-20.3L165.18-20.3Q162.98-20.3 161.93-19.25 160.88-18.2 160.88-16.65L160.88-16.65Q160.88-16.05 161.03-15.3L161.03-15.3 159.93-14.8Q158.88-15.35 158.03-16.32 157.18-17.3 157.18-17.7L157.18-17.7Q157.18-18.05 157.8-18.9 158.43-19.75 159.68-20.7 160.93-21.65 162.73-22.33 164.53-23 166.88-23L166.88-23Q168.43-23 169.7-22.55 170.98-22.1 171.73-20.95 172.48-19.8 172.48-17.65L172.48-17.65Q172.48-17.15 172.5-15.85 172.53-14.55 172.58-12.85 172.63-11.15 172.65-9.43 172.68-7.7 172.73-6.4 172.78-5.1 172.78-4.6L172.78-4.6Q172.83-3.25 173.35-2.73 173.88-2.2 174.58-2.2L174.58-2.2Q174.88-2.2 175.28-2.3 175.68-2.4 176.13-2.6ZM168.83-4.7L168.83-4.7 168.83-10.5Q164.43-10.4 162.43-8.85 160.43-7.3 160.43-5.55L160.43-5.55Q160.43-4.05 161.33-3.3 162.23-2.55 163.68-2.55L163.68-2.55Q164.78-2.55 166.1-3.08 167.43-3.6 168.83-4.7ZM211.21-1.3L211.21-1.3 211.06 0.15Q210.21 0.15 208.91 0.2 207.61 0.25 206.41 0.33 205.21 0.4 204.61 0.45L204.61 0.45 195.36-12.45 193.81-11.3Q193.91-6.4 194.06-4.45 194.21-2.5 194.21-2.4L194.21-2.4Q194.26-2.15 194.83-1.9 195.41-1.65 196.16-1.5 196.91-1.35 197.41-1.3L197.41-1.3 197.26 0.15Q196.06 0.05 194.61 0.03 193.16 0 191.86 0L191.86 0Q190.61 0 189.03 0.03 187.46 0.05 186.26 0.15L186.26 0.15 186.41-1.3Q186.96-1.35 187.66-1.5 188.36-1.65 188.93-1.9 189.51-2.15 189.56-2.4L189.56-2.4Q189.56-2.4 189.63-3.13 189.71-3.85 189.78-5.63 189.86-7.4 189.93-10.53 190.01-13.65 190.01-18.45L190.01-18.45Q190.01-23.3 189.96-26.25 189.91-29.2 189.81-30.75 189.71-32.3 189.66-32.83 189.61-33.35 189.61-33.35L189.61-33.35 186.41-34.3 186.31-35.6Q187.21-35.6 188.43-35.73 189.66-35.85 190.86-36.08 192.06-36.3 192.91-36.5L192.91-36.5 193.86-36.05Q193.86-36.05 193.81-31.4 193.76-26.75 193.76-17.6L193.76-17.6 193.76-13.6 201.76-19.6Q202.11-19.9 202.11-20.2L202.11-20.2Q202.11-20.6 201.41-20.95 200.71-21.3 199.11-21.35L199.11-21.35 199.26-22.8Q200.31-22.75 200.96-22.73 201.61-22.7 202.33-22.68 203.06-22.65 204.26-22.65L204.26-22.65Q206.11-22.65 207.18-22.7 208.26-22.75 209.81-22.8L209.81-22.8 209.96-21.35Q207.91-21.05 206.68-20.45 205.46-19.85 204.66-19.3L204.66-19.3 198.46-14.7 207.86-2.15Q208.31-1.5 209.36-1.45 210.41-1.4 211.21-1.3ZM239.59-4.15L239.59-4.15 240.19-2.65Q238.64-1.4 236.57-0.48 234.49 0.45 231.99 0.45L231.99 0.45Q228.29 0.45 225.92-1.03 223.54-2.5 222.42-4.95 221.29-7.4 221.29-10.35L221.29-10.35Q221.29-12.75 221.97-15 222.64-17.25 224.04-19.05 225.44-20.85 227.74-21.93 230.04-23 233.24-23L233.24-23Q235.04-23 236.79-22.15 238.54-21.3 239.69-19.43 240.84-17.55 240.84-14.45L240.84-14.45 239.14-12.4Q238.94-12.45 238.47-12.45 237.99-12.45 237.29-12.45L237.29-12.45Q236.04-12.45 234.34-12.43 232.64-12.4 230.89-12.35 229.14-12.3 227.69-12.23 226.24-12.15 225.54-12.1L225.54-12.1 225.54-11.65Q225.54-6.95 227.52-4.75 229.49-2.55 232.64-2.55L232.64-2.55Q234.49-2.55 236.14-2.95 237.79-3.35 239.59-4.15ZM236.34-16L236.34-16Q236.34-17.7 235.67-18.68 234.99-19.65 234.02-20.1 233.04-20.55 232.14-20.55L232.14-20.55Q229.69-20.55 228.04-18.63 226.39-16.7 225.84-14.15L225.84-14.15 236.19-14.55Q236.34-15.3 236.34-16ZM286.9-3.55L286.9-3.55 287.5-1.9Q285.8-0.8 284.25-0.18 282.7 0.45 281.1 0.45L281.1 0.45Q278.95 0.45 277.43-0.6 275.9-1.65 275.9-4.55L275.9-4.55Q275.9-4.55 275.93-5.78 275.95-7 275.95-8.78 275.95-10.55 275.95-12.15L275.95-12.15Q275.95-14.65 275.93-16.73 275.9-18.8 275.85-20.3L275.85-20.3Q274.35-20.25 273.5-20.25 272.65-20.25 272.65-20.25L272.65-20.25 272.5-20.8 273.65-22.75Q273.65-22.75 274.18-22.68 274.7-22.6 275.75-22.55L275.75-22.55Q275.75-23.55 275.7-24.63 275.65-25.7 275.6-26.43 275.55-27.15 275.55-27.15L275.55-27.15 278.85-30.1 279.8-29.65Q279.8-29.65 279.78-28.58 279.75-27.5 279.73-25.9 279.7-24.3 279.7-22.6L279.7-22.6Q283.1-22.6 285.08-22.63 287.05-22.65 287.05-22.65L287.05-22.65 287.3-22.05 285.5-20.05Q285.5-20.05 284.15-20.15 282.8-20.25 279.7-20.3L279.7-20.3 279.7-13.6Q279.7-10.6 279.73-8.65 279.75-6.7 279.85-4.65L279.85-4.65Q279.95-3.4 280.7-2.9 281.45-2.4 282.5-2.4L282.5-2.4Q283.65-2.4 284.88-2.8 286.1-3.2 286.9-3.55ZM316.09-4.15L316.09-4.15 316.69-2.65Q315.14-1.4 313.06-0.48 310.99 0.45 308.49 0.45L308.49 0.45Q304.79 0.45 302.41-1.03 300.04-2.5 298.91-4.95 297.79-7.4 297.79-10.35L297.79-10.35Q297.79-12.75 298.46-15 299.14-17.25 300.54-19.05 301.94-20.85 304.24-21.93 306.54-23 309.74-23L309.74-23Q311.54-23 313.29-22.15 315.04-21.3 316.19-19.43 317.34-17.55 317.34-14.45L317.34-14.45 315.64-12.4Q315.44-12.45 314.96-12.45 314.49-12.45 313.79-12.45L313.79-12.45Q312.54-12.45 310.84-12.43 309.14-12.4 307.39-12.35 305.64-12.3 304.19-12.23 302.74-12.15 302.04-12.1L302.04-12.1 302.04-11.65Q302.04-6.95 304.01-4.75 305.99-2.55 309.14-2.55L309.14-2.55Q310.99-2.55 312.64-2.95 314.29-3.35 316.09-4.15ZM312.84-16L312.84-16Q312.84-17.7 312.16-18.68 311.49-19.65 310.51-20.1 309.54-20.55 308.64-20.55L308.64-20.55Q306.19-20.55 304.54-18.63 302.89-16.7 302.34-14.15L302.34-14.15 312.69-14.55Q312.84-15.3 312.84-16ZM347.57-4.5L347.57-4.5 348.17-2.85Q346.47-1.5 344.29-0.53 342.12 0.45 339.32 0.45L339.32 0.45Q335.82 0.45 333.49-1.03 331.17-2.5 330.04-5.05 328.92-7.6 328.92-10.75L328.92-10.75Q328.92-13 329.64-15.18 330.37-17.35 331.79-19.13 333.22-20.9 335.34-21.95 337.47-23 340.32-23L340.32-23Q342.47-23 344.17-22.28 345.87-21.55 346.87-20.73 347.87-19.9 347.87-19.6L347.87-19.6Q347.87-18.95 347.57-17.88 347.27-16.8 346.67-15.95L346.67-15.95 345.47-15.95Q345.17-16.8 344.47-17.8 343.77-18.8 342.62-19.55 341.47-20.3 339.77-20.3L339.77-20.3Q337.57-20.3 336.12-18.93 334.67-17.55 333.99-15.43 333.32-13.3 333.32-11.1L333.32-11.1Q333.32-6.55 335.37-4.53 337.42-2.5 340.62-2.5L340.62-2.5Q342.22-2.5 344.12-3.03 346.02-3.55 347.57-4.5ZM365.8-18.1L365.8-18.1Q365.8-13.15 365.87-10.08 365.95-7 366.05-5.35 366.15-3.7 366.25-3.08 366.35-2.45 366.35-2.4L366.35-2.4Q366.4-2.15 366.97-1.9 367.55-1.65 368.3-1.5 369.05-1.35 369.55-1.3L369.55-1.3 369.4 0.15Q368.2 0.05 366.75 0.03 365.3 0 364 0L364 0Q362.75 0 361.17 0.03 359.6 0.05 358.4 0.15L358.4 0.15 358.55-1.3Q359.1-1.35 359.8-1.5 360.5-1.65 361.07-1.9 361.65-2.15 361.7-2.4L361.7-2.4Q361.7-2.4 361.75-3.13 361.8-3.85 361.87-5.63 361.95-7.4 362-10.53 362.05-13.65 362.05-18.45L362.05-18.45Q362.05-23.3 362-26.25 361.95-29.2 361.85-30.75 361.75-32.3 361.7-32.83 361.65-33.35 361.65-33.35L361.65-33.35 358.45-34.3 358.35-35.6Q359.25-35.6 360.47-35.73 361.7-35.85 362.9-36.08 364.1-36.3 364.95-36.5L364.95-36.5 365.9-36.05Q365.9-36.05 365.85-31.88 365.8-27.7 365.8-20.1L365.8-20.1Q366.85-20.7 368.55-21.38 370.25-22.05 372.17-22.53 374.1-23 375.8-23L375.8-23Q377.95-23 379.42-21.98 380.9-20.95 380.9-18.25L380.9-18.25 380.9-11.45Q380.9-7.8 381.02-5.85 381.15-3.9 381.27-3.15 381.4-2.4 381.4-2.4L381.4-2.4Q381.45-2.15 382.02-1.9 382.6-1.65 383.35-1.5 384.1-1.35 384.6-1.3L384.6-1.3 384.45 0.15Q383.25 0.05 381.8 0.03 380.35 0 379.05 0L379.05 0Q377.8 0 376.22 0.03 374.65 0.05 373.45 0.15L373.45 0.15 373.6-1.3Q374.15-1.35 374.85-1.5 375.55-1.65 376.12-1.9 376.7-2.15 376.75-2.4L376.75-2.4Q376.75-2.4 376.85-3.15 376.95-3.9 377.05-5.85 377.15-7.8 377.15-11.45L377.15-11.45 377.15-16.7Q377.15-18.55 376.07-19.23 375-19.9 373.4-19.9L373.4-19.9Q372.15-19.9 370.67-19.58 369.2-19.25 367.9-18.85 366.6-18.45 365.8-18.1ZM423.01-17.6L423.01-17.6Q423.01-13.1 423.09-10.25 423.16-7.4 423.26-5.75 423.36-4.1 423.44-3.38 423.51-2.65 423.56-2.4L423.56-2.4Q423.61-2.15 424.26-1.9 424.91-1.65 425.74-1.5 426.56-1.35 427.06-1.3L427.06-1.3 426.91 0.15Q425.71 0.05 424.11 0.03 422.51 0 421.21 0L421.21 0Q419.96 0 418.24 0.03 416.51 0.05 415.31 0.15L415.31 0.15 415.46-1.3Q416.01-1.35 416.79-1.5 417.56-1.65 418.21-1.9 418.86-2.15 418.91-2.4L418.91-2.4Q418.91-2.4 418.96-3.13 419.01-3.85 419.09-5.63 419.16-7.4 419.21-10.53 419.26-13.65 419.26-18.5L419.26-18.5Q419.26-23.3 419.21-26.25 419.16-29.2 419.06-30.75 418.96-32.3 418.91-32.83 418.86-33.35 418.86-33.35L418.86-33.35 415.66-34.3 415.56-35.6Q416.46-35.6 417.69-35.73 418.91-35.85 420.11-36.08 421.31-36.3 422.16-36.5L422.16-36.5 423.11-36.05Q423.11-36.05 423.06-31.4 423.01-26.75 423.01-17.6ZM460.69-12.15L460.69-12.15Q460.69-9.75 460.02-7.5 459.34-5.25 457.94-3.45 456.54-1.65 454.27-0.6 451.99 0.45 448.74 0.45L448.74 0.45Q443.14 0.45 440.64-2.53 438.14-5.5 438.14-10.3L438.14-10.3Q438.14-12.7 438.82-14.95 439.49-17.2 440.89-19.03 442.29-20.85 444.59-21.93 446.89-23 450.09-23L450.09-23Q453.84-23 456.17-21.63 458.49-20.25 459.59-17.8 460.69-15.35 460.69-12.15ZM456.39-10.3L456.39-10.3Q456.39-12.85 455.82-15.2 455.24-17.55 453.77-19.05 452.29-20.55 449.54-20.55L449.54-20.55Q447.34-20.55 445.94-19.53 444.54-18.5 443.79-17 443.04-15.5 442.74-14 442.44-12.5 442.44-11.5L442.44-11.5Q442.44-9.05 443.09-6.88 443.74-4.7 445.24-3.33 446.74-1.95 449.29-1.95L449.29-1.95Q451.29-1.95 452.67-2.83 454.04-3.7 454.87-5.05 455.69-6.4 456.04-7.83 456.39-9.25 456.39-10.3ZM495.38-12.15L495.38-12.15Q495.38-9.75 494.7-7.5 494.03-5.25 492.63-3.45 491.23-1.65 488.95-0.6 486.68 0.45 483.43 0.45L483.43 0.45Q477.83 0.45 475.33-2.53 472.83-5.5 472.83-10.3L472.83-10.3Q472.83-12.7 473.5-14.95 474.18-17.2 475.58-19.03 476.98-20.85 479.28-21.93 481.58-23 484.78-23L484.78-23Q488.53-23 490.85-21.63 493.18-20.25 494.28-17.8 495.38-15.35 495.38-12.15ZM491.08-10.3L491.08-10.3Q491.08-12.85 490.5-15.2 489.93-17.55 488.45-19.05 486.98-20.55 484.23-20.55L484.23-20.55Q482.03-20.55 480.63-19.53 479.23-18.5 478.48-17 477.73-15.5 477.43-14 477.13-12.5 477.13-11.5L477.13-11.5Q477.13-9.05 477.78-6.88 478.43-4.7 479.93-3.33 481.43-1.95 483.98-1.95L483.98-1.95Q485.98-1.95 487.35-2.83 488.73-3.7 489.55-5.05 490.38-6.4 490.73-7.83 491.08-9.25 491.08-10.3ZM531.41-1.3L531.41-1.3 531.26 0.15Q530.41 0.15 529.11 0.2 527.81 0.25 526.61 0.33 525.41 0.4 524.81 0.45L524.81 0.45 515.56-12.45 514.01-11.3Q514.11-6.4 514.26-4.45 514.41-2.5 514.41-2.4L514.41-2.4Q514.46-2.15 515.03-1.9 515.61-1.65 516.36-1.5 517.11-1.35 517.61-1.3L517.61-1.3 517.46 0.15Q516.26 0.05 514.81 0.03 513.36 0 512.06 0L512.06 0Q510.81 0 509.23 0.03 507.66 0.05 506.46 0.15L506.46 0.15 506.61-1.3Q507.16-1.35 507.86-1.5 508.56-1.65 509.13-1.9 509.71-2.15 509.76-2.4L509.76-2.4Q509.76-2.4 509.83-3.13 509.91-3.85 509.98-5.63 510.06-7.4 510.13-10.53 510.21-13.65 510.21-18.45L510.21-18.45Q510.21-23.3 510.16-26.25 510.11-29.2 510.01-30.75 509.91-32.3 509.86-32.83 509.81-33.35 509.81-33.35L509.81-33.35 506.61-34.3 506.51-35.6Q507.41-35.6 508.63-35.73 509.86-35.85 511.06-36.08 512.26-36.3 513.11-36.5L513.11-36.5 514.06-36.05Q514.06-36.05 514.01-31.4 513.96-26.75 513.96-17.6L513.96-17.6 513.96-13.6 521.96-19.6Q522.31-19.9 522.31-20.2L522.31-20.2Q522.31-20.6 521.61-20.95 520.91-21.3 519.31-21.35L519.31-21.35 519.46-22.8Q520.51-22.75 521.16-22.73 521.81-22.7 522.53-22.68 523.26-22.65 524.46-22.65L524.46-22.65Q526.31-22.65 527.38-22.7 528.46-22.75 530.01-22.8L530.01-22.8 530.16-21.35Q528.11-21.05 526.88-20.45 525.66-19.85 524.86-19.3L524.86-19.3 518.66-14.7 528.06-2.15Q528.51-1.5 529.56-1.45 530.61-1.4 531.41-1.3ZM549.29-23L549.29-23Q552.39-23 554.11-22.38 555.84-21.75 555.84-21.75L555.84-21.75Q555.84-20.65 555.89-19.25 555.94-17.85 556.14-16.8L556.14-16.8 554.84-16.35Q554.19-19 552.99-19.95 551.79-20.9 549.89-20.9L549.89-20.9Q548.19-20.9 547.16-19.95 546.14-19 546.14-17.7L546.14-17.7Q546.14-16.8 546.69-15.83 547.24-14.85 548.74-14L548.74-14 553.84-11.2Q555.39-10.35 556.26-9.05 557.14-7.75 557.14-5.85L557.14-5.85Q557.14-4.35 556.34-2.9 555.54-1.45 553.76-0.5 551.99 0.45 549.14 0.45L549.14 0.45Q547.64 0.45 545.71 0.15 543.79-0.15 541.64-0.8L541.64-0.8Q541.79-1.55 541.91-2.63 542.04-3.7 542.14-4.78 542.24-5.85 542.24-6.55L542.24-6.55 543.54-7Q543.99-5.25 544.44-3.98 544.89-2.7 545.86-2.05 546.84-1.4 548.84-1.4L548.84-1.4Q550.99-1.4 552.09-2.45 553.19-3.5 553.19-4.8L553.19-4.8Q553.19-5.75 552.61-6.65 552.04-7.55 550.84-8.2L550.84-8.2 545.44-11.2Q543.74-12.1 542.94-13.55 542.14-15 542.14-16.55L542.14-16.55Q542.14-18.15 542.96-19.63 543.79-21.1 545.39-22.05 546.99-23 549.29-23ZM607.85-4.15L607.85-4.15 608.45-2.65Q606.9-1.4 604.83-0.48 602.75 0.45 600.25 0.45L600.25 0.45Q596.55 0.45 594.18-1.03 591.8-2.5 590.68-4.95 589.55-7.4 589.55-10.35L589.55-10.35Q589.55-12.75 590.23-15 590.9-17.25 592.3-19.05 593.7-20.85 596-21.93 598.3-23 601.5-23L601.5-23Q603.3-23 605.05-22.15 606.8-21.3 607.95-19.43 609.1-17.55 609.1-14.45L609.1-14.45 607.4-12.4Q607.2-12.45 606.73-12.45 606.25-12.45 605.55-12.45L605.55-12.45Q604.3-12.45 602.6-12.43 600.9-12.4 599.15-12.35 597.4-12.3 595.95-12.23 594.5-12.15 593.8-12.1L593.8-12.1 593.8-11.65Q593.8-6.95 595.78-4.75 597.75-2.55 600.9-2.55L600.9-2.55Q602.75-2.55 604.4-2.95 606.05-3.35 607.85-4.15ZM604.6-16L604.6-16Q604.6-17.7 603.93-18.68 603.25-19.65 602.28-20.1 601.3-20.55 600.4-20.55L600.4-20.55Q597.95-20.55 596.3-18.63 594.65-16.7 594.1-14.15L594.1-14.15 604.45-14.55Q604.6-15.3 604.6-16ZM640.73-2.6L640.73-2.6 641.23-1.3Q639.33 0.45 637.08 0.45L637.08 0.45Q635.83 0.45 634.83-0.33 633.83-1.1 633.58-2.8L633.58-2.8Q631.73-1.4 629.91-0.48 628.08 0.45 625.98 0.45L625.98 0.45Q623.98 0.45 622.41-0.8 620.83-2.05 620.83-4.75L620.83-4.75Q620.83-6.55 621.98-8.28 623.13-10 625.91-11.23 628.68-12.45 633.43-12.75L633.43-12.75 633.43-17.4Q633.43-18.85 632.36-19.58 631.28-20.3 629.78-20.3L629.78-20.3Q627.58-20.3 626.53-19.25 625.48-18.2 625.48-16.65L625.48-16.65Q625.48-16.05 625.63-15.3L625.63-15.3 624.53-14.8Q623.48-15.35 622.63-16.32 621.78-17.3 621.78-17.7L621.78-17.7Q621.78-18.05 622.41-18.9 623.03-19.75 624.28-20.7 625.53-21.65 627.33-22.33 629.13-23 631.48-23L631.48-23Q633.03-23 634.31-22.55 635.58-22.1 636.33-20.95 637.08-19.8 637.08-17.65L637.08-17.65Q637.08-17.15 637.11-15.85 637.13-14.55 637.18-12.85 637.23-11.15 637.26-9.43 637.28-7.7 637.33-6.4 637.38-5.1 637.38-4.6L637.38-4.6Q637.43-3.25 637.96-2.73 638.48-2.2 639.18-2.2L639.18-2.2Q639.48-2.2 639.88-2.3 640.28-2.4 640.73-2.6ZM633.43-4.7L633.43-4.7 633.43-10.5Q629.03-10.4 627.03-8.85 625.03-7.3 625.03-5.55L625.03-5.55Q625.03-4.05 625.93-3.3 626.83-2.55 628.28-2.55L628.28-2.55Q629.38-2.55 630.71-3.08 632.03-3.6 633.43-4.7ZM659.62-23L659.62-23Q662.72-23 664.44-22.38 666.17-21.75 666.17-21.75L666.17-21.75Q666.17-20.65 666.22-19.25 666.27-17.85 666.47-16.8L666.47-16.8 665.17-16.35Q664.52-19 663.32-19.95 662.12-20.9 660.22-20.9L660.22-20.9Q658.52-20.9 657.49-19.95 656.47-19 656.47-17.7L656.47-17.7Q656.47-16.8 657.02-15.83 657.57-14.85 659.07-14L659.07-14 664.17-11.2Q665.72-10.35 666.59-9.05 667.47-7.75 667.47-5.85L667.47-5.85Q667.47-4.35 666.67-2.9 665.87-1.45 664.09-0.5 662.32 0.45 659.47 0.45L659.47 0.45Q657.97 0.45 656.04 0.15 654.12-0.15 651.97-0.8L651.97-0.8Q652.12-1.55 652.24-2.63 652.37-3.7 652.47-4.78 652.57-5.85 652.57-6.55L652.57-6.55 653.87-7Q654.32-5.25 654.77-3.98 655.22-2.7 656.19-2.05 657.17-1.4 659.17-1.4L659.17-1.4Q661.32-1.4 662.42-2.45 663.52-3.5 663.52-4.8L663.52-4.8Q663.52-5.75 662.94-6.65 662.37-7.55 661.17-8.2L661.17-8.2 655.77-11.2Q654.07-12.1 653.27-13.55 652.47-15 652.47-16.55L652.47-16.55Q652.47-18.15 653.29-19.63 654.12-21.1 655.72-22.05 657.32-23 659.62-23ZM688.7 0L688.7 0 686.95-1.05 680.45-19.3Q680.25-19.85 679.65-20.48 679.05-21.1 677.4-21.35L677.4-21.35 677.25-22.8Q677.25-22.8 678.15-22.78 679.05-22.75 680.25-22.7 681.45-22.65 682.35-22.65L682.35-22.65Q683.3-22.65 684.45-22.7 685.6-22.75 686.42-22.78 687.25-22.8 687.25-22.8L687.25-22.8 687.4-21.35Q685.75-21.15 685.07-20.7 684.4-20.25 684.4-19.85L684.4-19.85Q684.4-19.65 685.85-15.43 687.3-11.2 689.9-3.2L689.9-3.2Q692.7-11.1 694.1-15.28 695.5-19.45 695.5-19.9L695.5-19.9Q695.5-21 692.75-21.35L692.75-21.35 692.6-22.8Q692.6-22.8 693.7-22.73 694.8-22.65 696.2-22.65L696.2-22.65Q697.1-22.65 698.3-22.7 699.5-22.75 700.4-22.78 701.3-22.8 701.3-22.8L701.3-22.8 701.45-21.35Q699.9-21.15 699.27-20.78 698.65-20.4 698.42-19.7 698.2-19 697.7-17.7L697.7-17.7 691.05 0Q689.25 4.8 687.65 7.5 686.05 10.2 684.77 11.4 683.5 12.6 682.55 12.88 681.6 13.15 681.05 13.15L681.05 13.15Q680.8 13.15 680.27 12.63 679.75 12.1 679.25 11.28 678.75 10.45 678.5 9.65L678.5 9.65 679.25 8.7Q680.2 9.15 681.5 9.15L681.5 9.15Q682.3 9.15 683.4 8.45 684.5 7.75 685.85 5.78 687.2 3.8 688.7 0Z" opacity="1" transform="matrix(1,0,0,1,0,0)" fill="#ac6aff" class="slogan-text-1" data-fill-palette-color="secondary" id="text-1"></path></svg></g></svg></g></svg></g></svg></g><g><svg viewBox="0 0 112.2505828249433 85.24013589685606" height="85.24013589685606" width="112.2505828249433"><g><svg xmlns="http://www.w3.org/2000/svg" xmlns:xlink="http://www.w3.org/1999/xlink" version="1.1" x="8" y="0" viewBox="25.899860075925623 52.2 460.25013992407435 407.6004874176015" style="enable-background:new 0 0 512 512;" xml:space="preserve" height="85.24013589685606" width="96.2505828249433" class="icon-icon-0" data-fill-palette-color="accent" id="icon-0"><g fill="#ac6aff" data-fill-palette-color="accent"><path d="M376.8 262C379.7 278.3 393.9 290.2 410.5 290.2 429.4 290.2 444.8 274.9 444.8 256S429.5 221.7 410.6 221.7C394 221.7 379.8 233.6 376.9 249.9H135.4C132.5 233.6 118.3 221.7 101.7 221.7 82.8 221.7 67.5 237 67.5 255.9S82.8 290.1 101.7 290.1C110.8 290.1 119.5 286.5 125.9 280.1 130.9 275.2 134.2 268.8 135.4 261.9H376.8z" fill="#ac6aff" data-fill-palette-color="accent"></path><path d="M476.1 325.7C462.7 312.3 441 312.3 427.6 325.7 422.6 330.7 419.3 337.1 418.1 344H361.9C349.3 343.9 339.1 333.6 339.1 321 339.1 301.8 323.6 286.1 304.3 286H207.7C188.5 286.1 172.9 301.8 172.9 321 172.9 333.6 162.7 343.9 150.1 344H94C92.8 337.1 89.5 330.7 84.5 325.7 71.1 312.4 49.5 312.5 36.2 325.8 22.9 339.2 23 360.8 36.3 374.1 49.6 387.3 71.1 387.3 84.4 374.1 89.4 369.2 92.7 362.9 93.9 356H150.1C169.3 355.9 184.9 340.2 184.9 321 184.9 308.4 195.1 298.1 207.7 298H304.3C316.9 298.1 327.1 308.4 327.1 321 327.1 340.2 342.6 355.9 361.9 356H418.1C419.3 362.9 422.6 369.2 427.6 374.1 441 387.5 462.7 387.5 476.1 374.1 489.4 360.8 489.5 339.1 476.1 325.7" fill="#ac6aff" data-fill-palette-color="accent"></path><path d="M391.6 391.3C382.5 391.3 373.7 394.9 367.3 401.4 361.5 407.2 358 414.9 357.4 423H349.3C336.6 422.9 325.4 415 321 403.1L302.3 352.6A42.53 42.53 0 0 0 262.7 325H249.7C232.1 325 216.3 336 210.1 352.5L191.4 403.1C187 415 175.7 422.9 163.1 423H155C153.5 404.3 137.1 390.4 118.4 391.9S85.8 409.8 87.3 428.5 105.2 461.1 123.9 459.6C131.9 459 139.4 455.5 145.1 449.8 149.2 445.6 152.2 440.5 153.8 435H163C180.7 434.9 196.4 423.9 202.6 407.3L221.3 356.8C225.7 345 237 337.1 249.6 337.1H262.6C275.2 337.1 286.5 344.9 290.9 356.8L309.6 407.4C315.8 424 331.5 435 349.2 435.1H358.4C360.2 440.6 363.1 445.7 367 449.9V449.8C374 456.3 382.1 459.8 391.3 459.8 410.2 459.9 425.6 444.6 425.6 425.7 425.7 406.7 410.5 391.4 391.6 391.3" fill="#ac6aff" data-fill-palette-color="accent"></path><path d="M84.4 186.4L84.5 186.3C89.5 181.3 92.8 174.9 94 168H150.2C162.8 168.1 173 178.4 173 191 173 210.2 188.5 225.9 207.8 226H304.4C323.6 225.9 339.2 210.2 339.2 191 339.2 178.4 349.4 168.1 362 168H418.2C419.4 174.9 422.7 181.3 427.7 186.3 441.1 199.7 462.8 199.7 476.1 186.3 489.5 172.9 489.5 151.2 476.1 137.9 462.7 124.5 441.1 124.5 427.7 137.9 422.7 142.8 419.4 149.1 418.2 156H362C342.8 156.1 327.2 171.8 327.2 191 327.2 203.6 317 213.9 304.4 214H207.8C195.2 213.9 185 203.6 185 191 185 171.8 169.5 156.1 150.2 156H94C92.8 149.1 89.5 142.8 84.5 137.9 71.1 124.5 49.4 124.4 36 137.8S22.5 172.9 35.9 186.3 71 199.8 84.4 186.4" fill="#ac6aff" data-fill-palette-color="accent"></path><path d="M144.9 110.6C150.7 104.8 154.2 97.2 154.8 89H162.9C175.6 89.1 186.8 97 191.2 108.9L209.9 159.4A42.53 42.53 0 0 0 249.5 187H262.5C280.1 187 295.9 176 302.1 159.5L320.8 108.9C325.2 97 336.5 89.1 349.1 89H357.2C358.7 107.7 375.1 121.6 393.8 120.1S426.4 102.2 424.9 83.5 407 50.9 388.3 52.4C380.3 53 372.8 56.5 367.1 62.2 363 66.4 360 71.5 358.4 77H349.2C331.5 77.1 315.8 88.1 309.6 104.7L290.9 155.2C286.5 167 275.2 174.9 262.6 174.9H249.6C237 174.9 225.7 167.1 221.3 155.2L202.6 104.6C196.4 88 180.7 77 163 76.9H153.8C152 71.4 149.1 66.3 145.2 62.1V62.2C138.2 55.7 130.1 52.2 120.9 52.2 111.8 52.2 103 55.8 96.6 62.3 83.3 75.7 83.3 97.3 96.7 110.7 110 124 131.6 124 144.9 110.6" fill="#ac6aff" data-fill-palette-color="accent"></path></g></svg></g></svg></g></svg></g></svg></g><path d="M200.133 89.01L200.133 23.415 0 23.415 0 223.785 200.133 223.785 200.133 158.19 198.158 158.19 198.158 221.81 1.974 221.81 1.974 25.39 198.158 25.39 198.158 89.01Z" fill="#ac6aff" stroke="transparent" data-fill-palette-color="tertiary"></path></svg></g><defs></defs></svg><rect width="395.52" height="247.2" fill="none" stroke="none" visibility="hidden"></rect></g></svg></g></svg>