<svg xmlns="http://www.w3.org/2000/svg" version="1.1" xmlns:xlink="http://www.w3.org/1999/xlink" xmlns:svgjs="http://svgjs.dev/svgjs" width="128" height="128" viewBox="0 0 128 128"><g transform="matrix(0.8046875,0,0,0.8046875,12.333870967741937,12.333870967741937)"><svg viewBox="0 0 155 155" data-background-color="#0e0c15" preserveAspectRatio="xMidYMid meet" height="128" width="128" xmlns="http://www.w3.org/2000/svg" xmlns:xlink="http://www.w3.org/1999/xlink"><g id="tight-bounds" transform="matrix(1,0,0,1,0.25,0.25)"><svg viewBox="0 0 154.5 154.5" height="154.5" width="154.5"><g><svg></svg></g><g><svg viewBox="0 0 154.5 154.5" height="154.5" width="154.5"><g transform="matrix(1,0,0,1,59.016757278,61.10252284352018)"><svg viewBox="0 0 36.46648544399999 32.29495431295965" height="32.29495431295965" width="36.46648544399999"><g><svg viewBox="0 0 36.46648544399999 32.29495431295965" height="32.29495431295965" width="36.46648544399999"><g><svg viewBox="0 0 36.46648544399999 32.29495431295965" height="32.29495431295965" width="36.46648544399999"><g id="textblocktransform"><svg viewBox="0 0 36.46648544399999 32.29495431295965" height="32.29495431295965" width="36.46648544399999" id="textblock"><g><svg viewBox="0 0 36.46648544399999 32.29495431295965" height="32.29495431295965" width="36.46648544399999"><g><svg viewBox="0 0 36.46648544399999 32.29495431295965" height="32.29495431295965" width="36.46648544399999"><g><svg xmlns="http://www.w3.org/2000/svg" xmlns:xlink="http://www.w3.org/1999/xlink" version="1.1" x="0" y="0" viewBox="25.899860075925623 52.2 460.25013992407435 407.6004874176015" style="enable-background:new 0 0 512 512;" xml:space="preserve" height="32.29495431295965" width="36.46648544399999" class="icon-icon-0" data-fill-palette-color="accent" id="icon-0"><g fill="#ac6aff" data-fill-palette-color="accent"><path d="M376.8 262C379.7 278.3 393.9 290.2 410.5 290.2 429.4 290.2 444.8 274.9 444.8 256S429.5 221.7 410.6 221.7C394 221.7 379.8 233.6 376.9 249.9H135.4C132.5 233.6 118.3 221.7 101.7 221.7 82.8 221.7 67.5 237 67.5 255.9S82.8 290.1 101.7 290.1C110.8 290.1 119.5 286.5 125.9 280.1 130.9 275.2 134.2 268.8 135.4 261.9H376.8z" fill="#ac6aff" data-fill-palette-color="accent"></path><path d="M476.1 325.7C462.7 312.3 441 312.3 427.6 325.7 422.6 330.7 419.3 337.1 418.1 344H361.9C349.3 343.9 339.1 333.6 339.1 321 339.1 301.8 323.6 286.1 304.3 286H207.7C188.5 286.1 172.9 301.8 172.9 321 172.9 333.6 162.7 343.9 150.1 344H94C92.8 337.1 89.5 330.7 84.5 325.7 71.1 312.4 49.5 312.5 36.2 325.8 22.9 339.2 23 360.8 36.3 374.1 49.6 387.3 71.1 387.3 84.4 374.1 89.4 369.2 92.7 362.9 93.9 356H150.1C169.3 355.9 184.9 340.2 184.9 321 184.9 308.4 195.1 298.1 207.7 298H304.3C316.9 298.1 327.1 308.4 327.1 321 327.1 340.2 342.6 355.9 361.9 356H418.1C419.3 362.9 422.6 369.2 427.6 374.1 441 387.5 462.7 387.5 476.1 374.1 489.4 360.8 489.5 339.1 476.1 325.7" fill="#ac6aff" data-fill-palette-color="accent"></path><path d="M391.6 391.3C382.5 391.3 373.7 394.9 367.3 401.4 361.5 407.2 358 414.9 357.4 423H349.3C336.6 422.9 325.4 415 321 403.1L302.3 352.6A42.53 42.53 0 0 0 262.7 325H249.7C232.1 325 216.3 336 210.1 352.5L191.4 403.1C187 415 175.7 422.9 163.1 423H155C153.5 404.3 137.1 390.4 118.4 391.9S85.8 409.8 87.3 428.5 105.2 461.1 123.9 459.6C131.9 459 139.4 455.5 145.1 449.8 149.2 445.6 152.2 440.5 153.8 435H163C180.7 434.9 196.4 423.9 202.6 407.3L221.3 356.8C225.7 345 237 337.1 249.6 337.1H262.6C275.2 337.1 286.5 344.9 290.9 356.8L309.6 407.4C315.8 424 331.5 435 349.2 435.1H358.4C360.2 440.6 363.1 445.7 367 449.9V449.8C374 456.3 382.1 459.8 391.3 459.8 410.2 459.9 425.6 444.6 425.6 425.7 425.7 406.7 410.5 391.4 391.6 391.3" fill="#ac6aff" data-fill-palette-color="accent"></path><path d="M84.4 186.4L84.5 186.3C89.5 181.3 92.8 174.9 94 168H150.2C162.8 168.1 173 178.4 173 191 173 210.2 188.5 225.9 207.8 226H304.4C323.6 225.9 339.2 210.2 339.2 191 339.2 178.4 349.4 168.1 362 168H418.2C419.4 174.9 422.7 181.3 427.7 186.3 441.1 199.7 462.8 199.7 476.1 186.3 489.5 172.9 489.5 151.2 476.1 137.9 462.7 124.5 441.1 124.5 427.7 137.9 422.7 142.8 419.4 149.1 418.2 156H362C342.8 156.1 327.2 171.8 327.2 191 327.2 203.6 317 213.9 304.4 214H207.8C195.2 213.9 185 203.6 185 191 185 171.8 169.5 156.1 150.2 156H94C92.8 149.1 89.5 142.8 84.5 137.9 71.1 124.5 49.4 124.4 36 137.8S22.5 172.9 35.9 186.3 71 199.8 84.4 186.4" fill="#ac6aff" data-fill-palette-color="accent"></path><path d="M144.9 110.6C150.7 104.8 154.2 97.2 154.8 89H162.9C175.6 89.1 186.8 97 191.2 108.9L209.9 159.4A42.53 42.53 0 0 0 249.5 187H262.5C280.1 187 295.9 176 302.1 159.5L320.8 108.9C325.2 97 336.5 89.1 349.1 89H357.2C358.7 107.7 375.1 121.6 393.8 120.1S426.4 102.2 424.9 83.5 407 50.9 388.3 52.4C380.3 53 372.8 56.5 367.1 62.2 363 66.4 360 71.5 358.4 77H349.2C331.5 77.1 315.8 88.1 309.6 104.7L290.9 155.2C286.5 167 275.2 174.9 262.6 174.9H249.6C237 174.9 225.7 167.1 221.3 155.2L202.6 104.6C196.4 88 180.7 77 163 76.9H153.8C152 71.4 149.1 66.3 145.2 62.1V62.2C138.2 55.7 130.1 52.2 120.9 52.2 111.8 52.2 103 55.8 96.6 62.3 83.3 75.7 83.3 97.3 96.7 110.7 110 124 131.6 124 144.9 110.6" fill="#ac6aff" data-fill-palette-color="accent"></path></g></svg></g></svg></g></svg></g></svg></g></svg></g></svg></g></svg></g><path d="M59.017 55.103L59.017 1 95.483 1 95.483 55.103 92.571 55.103 92.571 3.912 61.929 3.912 61.929 55.103 59.017 55.103M59.017 99.397L59.017 153.5 95.483 153.5 95.483 99.397 92.571 99.397 92.571 150.588 61.929 150.588 61.929 99.397 59.017 99.397" fill="#ac6aff" stroke="transparent" data-fill-palette-color="tertiary"></path></svg></g><defs></defs></svg><rect width="154.5" height="154.5" fill="none" stroke="none" visibility="hidden"></rect></g></svg></g></svg>